# MagicaVoxel @ Ephtracy

# group
g griefMaster

# material
mtllib griefMaster.mtl
usemtl palette

# normals
vn -1 0 0
vn 1 0 0
vn 0 0 1
vn 0 0 -1
vn 0 -1 0
vn 0 1 0

# texcoords
vt 0.0332031 0.5
vt 0.138672 0.5
vt 0.955078 0.5
vt 0.958984 0.5
vt 0.962891 0.5
vt 0.982422 0.5
vt 0.986328 0.5
vt 0.990234 0.5
vt 0.994141 0.5

# verts
v -4 0 3.5
v -4 0 -3.5
v -4 1 3.5
v -4 1 -1.5
v -4 1 -2.5
v -4 1 -3.5
v -4 2 0.5
v -4 2 -0.5
v -4 2 -1.5
v -4 2 -2.5
v -4 3 0.5
v -4 3 -0.5
v -4 6 3.5
v -4 6 0.5
v -4 6 -0.5
v -4 6 -1.5
v -4 7 0.5
v -4 7 -0.5
v -4 10 3.5
v -4 10 1.5
v -4 10 -0.5
v -4 10 -1.5
v -4 12 1.5
v -4 12 -0.5
v -3 0 4.5
v -3 0 3.5
v -3 0 -3.5
v -3 0 -4.5
v -3 1 4.5
v -3 1 3.5
v -3 1 -1.5
v -3 1 -2.5
v -3 1 -3.5
v -3 1 -4.5
v -3 2 3.5
v -3 2 2.5
v -3 2 0.5
v -3 2 -0.5
v -3 2 -1.5
v -3 2 -2.5
v -3 2 -3.5
v -3 3 0.5
v -3 3 -0.5
v -3 6 2.5
v -3 6 0.5
v -3 6 -0.5
v -3 6 -1.5
v -3 6 -2.5
v -3 7 0.5
v -3 7 -0.5
v -3 10 3.5
v -3 10 2.5
v -3 10 -0.5
v -3 10 -1.5
v -3 11 3.5
v -3 11 2.5
v -3 11 -1.5
v -3 11 -2.5
v -3 12 1.5
v -3 12 -0.5
v -3 14 1.5
v -3 14 -1.5
v -2 6 -2.5
v -2 6 -3.5
v -2 10 2.5
v -2 10 1.5
v -2 11 2.5
v -2 11 1.5
v -2 11 -1.5
v -2 11 -2.5
v -2 11 -3.5
v -2 13 -1.5
v -2 13 -2.5
v -1 7 2.5
v -1 7 1.5
v -1 8 2.5
v -1 8 1.5
v 0 0 0.5
v 0 0 -0.5
v 0 1 0.5
v 0 1 -0.5
v 1 1 2.5
v 1 1 1.5
v 1 2 2.5
v 1 2 1.5
v 1 6 2.5
v 1 6 1.5
v 1 7 2.5
v 1 7 1.5
v 2 7 2.5
v 2 7 1.5
v 2 8 2.5
v 2 8 1.5
v 3 6 3.5
v 3 6 2.5
v 3 9 3.5
v 3 9 2.5
v -3 6 3.5
v -3 6 2.5
v -3 9 3.5
v -3 9 2.5
v -2 7 2.5
v -2 7 1.5
v -2 8 2.5
v -2 8 1.5
v -1 0 0.5
v -1 0 -0.5
v -1 1 0.5
v -1 1 -0.5
v -1 6 2.5
v -1 6 1.5
v -1 7 2.5
v -1 7 1.5
v 0 1 2.5
v 0 1 1.5
v 0 2 2.5
v 0 2 1.5
v 1 7 2.5
v 1 7 1.5
v 1 8 2.5
v 1 8 1.5
v 2 0 -3.5
v 2 0 -4.5
v 2 1 -1.5
v 2 1 -3.5
v 2 1 -4.5
v 2 2 -1.5
v 2 2 -2.5
v 2 2 -3.5
v 2 6 -2.5
v 2 6 -3.5
v 2 11 -2.5
v 2 11 -3.5
v 3 0 4.5
v 3 0 2.5
v 3 0 -2.5
v 3 0 -3.5
v 3 1 4.5
v 3 1 3.5
v 3 1 0.5
v 3 1 -1.5
v 3 1 -2.5
v 3 1 -3.5
v 3 2 3.5
v 3 2 2.5
v 3 2 0.5
v 3 2 -0.5
v 3 2 -1.5
v 3 2 -2.5
v 3 3 0.5
v 3 3 -0.5
v 3 6 2.5
v 3 6 0.5
v 3 6 -0.5
v 3 6 -1.5
v 3 6 -2.5
v 3 7 0.5
v 3 7 -0.5
v 3 9 3.5
v 3 9 2.5
v 3 11 3.5
v 3 11 2.5
v 3 11 -0.5
v 3 11 -1.5
v 3 12 1.5
v 3 12 -0.5
v 3 13 -1.5
v 3 13 -2.5
v 3 14 1.5
v 3 14 -1.5
v 4 0 2.5
v 4 0 -2.5
v 4 1 0.5
v 4 1 -2.5
v 4 2 2.5
v 4 2 0.5
v 4 2 -0.5
v 4 3 0.5
v 4 3 -0.5
v 4 6 3.5
v 4 6 0.5
v 4 6 -0.5
v 4 6 -1.5
v 4 7 0.5
v 4 7 -0.5
v 4 9 3.5
v 4 9 2.5
v 4 11 2.5
v 4 11 1.5
v 4 11 -0.5
v 4 11 -1.5
v 4 12 1.5
v 4 12 -0.5
v -3 0 4.5
v -3 1 4.5
v 3 0 4.5
v 3 1 4.5
v -4 0 3.5
v -4 1 3.5
v -4 6 3.5
v -4 10 3.5
v -3 0 3.5
v -3 1 3.5
v -3 2 3.5
v -3 6 3.5
v -3 9 3.5
v -3 10 3.5
v -3 11 3.5
v 3 1 3.5
v 3 2 3.5
v 3 6 3.5
v 3 9 3.5
v 3 11 3.5
v 4 6 3.5
v 4 9 3.5
v -3 2 2.5
v -3 6 2.5
v -3 9 2.5
v -2 7 2.5
v -2 8 2.5
v -1 6 2.5
v -1 7 2.5
v -1 8 2.5
v 1 6 2.5
v 1 7 2.5
v 1 8 2.5
v 2 7 2.5
v 2 8 2.5
v 3 0 2.5
v 3 2 2.5
v 3 6 2.5
v 3 9 2.5
v 3 11 2.5
v 4 0 2.5
v 4 2 2.5
v 4 9 2.5
v 4 11 2.5
v -4 10 1.5
v -4 12 1.5
v -3 12 1.5
v -3 14 1.5
v -2 7 1.5
v -2 8 1.5
v -2 10 1.5
v -2 11 1.5
v -1 6 1.5
v -1 7 1.5
v -1 8 1.5
v 0 1 1.5
v 0 2 1.5
v 1 1 1.5
v 1 2 1.5
v 1 6 1.5
v 1 7 1.5
v 1 8 1.5
v 2 7 1.5
v 2 8 1.5
v 3 12 1.5
v 3 14 1.5
v 4 11 1.5
v 4 12 1.5
v -4 2 0.5
v -4 3 0.5
v -4 6 0.5
v -3 2 0.5
v -3 3 0.5
v -3 6 0.5
v 3 2 0.5
v 3 3 0.5
v 3 6 0.5
v 4 2 0.5
v 4 3 0.5
v 4 6 0.5
v -4 6 -0.5
v -4 7 -0.5
v -3 6 -0.5
v -3 7 -0.5
v -1 0 -0.5
v -1 1 -0.5
v 0 0 -0.5
v 0 1 -0.5
v 3 6 -0.5
v 3 7 -0.5
v 4 6 -0.5
v 4 7 -0.5
v -4 1 -1.5
v -4 2 -1.5
v -3 1 -1.5
v -3 2 -1.5
v -3 10 2.5
v -3 11 2.5
v -2 10 2.5
v -2 11 2.5
v 0 1 2.5
v 0 2 2.5
v 1 1 2.5
v 1 2 2.5
v -4 6 0.5
v -4 7 0.5
v -3 6 0.5
v -3 7 0.5
v -1 0 0.5
v -1 1 0.5
v 0 0 0.5
v 0 1 0.5
v 3 1 0.5
v 3 2 0.5
v 3 6 0.5
v 3 7 0.5
v 4 1 0.5
v 4 2 0.5
v 4 6 0.5
v 4 7 0.5
v -4 2 -0.5
v -4 3 -0.5
v -4 6 -0.5
v -4 10 -0.5
v -4 12 -0.5
v -3 2 -0.5
v -3 3 -0.5
v -3 6 -0.5
v -3 10 -0.5
v -3 12 -0.5
v 3 2 -0.5
v 3 3 -0.5
v 3 6 -0.5
v 3 11 -0.5
v 3 12 -0.5
v 4 2 -0.5
v 4 3 -0.5
v 4 6 -0.5
v 4 11 -0.5
v 4 12 -0.5
v -4 6 -1.5
v -4 10 -1.5
v -3 6 -1.5
v -3 10 -1.5
v -3 11 -1.5
v -3 14 -1.5
v -2 11 -1.5
v -2 13 -1.5
v 2 1 -1.5
v 2 2 -1.5
v 3 1 -1.5
v 3 2 -1.5
v 3 6 -1.5
v 3 11 -1.5
v 3 13 -1.5
v 3 14 -1.5
v 4 6 -1.5
v 4 11 -1.5
v -4 1 -2.5
v -4 2 -2.5
v -3 1 -2.5
v -3 2 -2.5
v -3 6 -2.5
v -3 11 -2.5
v -2 6 -2.5
v -2 11 -2.5
v -2 13 -2.5
v 2 2 -2.5
v 2 6 -2.5
v 2 11 -2.5
v 3 0 -2.5
v 3 1 -2.5
v 3 2 -2.5
v 3 6 -2.5
v 3 13 -2.5
v 4 0 -2.5
v 4 1 -2.5
v -4 0 -3.5
v -4 1 -3.5
v -3 0 -3.5
v -3 1 -3.5
v -3 2 -3.5
v -2 6 -3.5
v -2 11 -3.5
v 2 0 -3.5
v 2 1 -3.5
v 2 2 -3.5
v 2 6 -3.5
v 2 11 -3.5
v 3 0 -3.5
v 3 1 -3.5
v -3 0 -4.5
v -3 1 -4.5
v 2 0 -4.5
v 2 1 -4.5
v -3 0 4.5
v 3 0 4.5
v -4 0 3.5
v -3 0 3.5
v 3 0 2.5
v 4 0 2.5
v -1 0 0.5
v 0 0 0.5
v -1 0 -0.5
v 0 0 -0.5
v 3 0 -2.5
v 4 0 -2.5
v -4 0 -3.5
v -3 0 -3.5
v 2 0 -3.5
v 3 0 -3.5
v -3 0 -4.5
v 2 0 -4.5
v -1 1 0.5
v 0 1 0.5
v -1 1 -0.5
v 0 1 -0.5
v 0 2 2.5
v 1 2 2.5
v 0 2 1.5
v 1 2 1.5
v -4 2 0.5
v -3 2 0.5
v 3 2 0.5
v 4 2 0.5
v -4 2 -0.5
v -3 2 -0.5
v 3 2 -0.5
v 4 2 -0.5
v 2 2 -1.5
v 3 2 -1.5
v 2 2 -2.5
v 3 2 -2.5
v -4 6 3.5
v -3 6 3.5
v 3 6 3.5
v 4 6 3.5
v -3 6 2.5
v 3 6 2.5
v -4 6 0.5
v -3 6 0.5
v 3 6 0.5
v 4 6 0.5
v -4 6 -0.5
v -3 6 -0.5
v 3 6 -0.5
v 4 6 -0.5
v -4 6 -1.5
v -3 6 -1.5
v 3 6 -1.5
v 4 6 -1.5
v -2 6 -2.5
v 2 6 -2.5
v -2 6 -3.5
v 2 6 -3.5
v -1 7 2.5
v 1 7 2.5
v -1 7 1.5
v 1 7 1.5
v -4 7 0.5
v -3 7 0.5
v 3 7 0.5
v 4 7 0.5
v -4 7 -0.5
v -3 7 -0.5
v 3 7 -0.5
v 4 7 -0.5
v -2 8 2.5
v -1 8 2.5
v 1 8 2.5
v 2 8 2.5
v -2 8 1.5
v -1 8 1.5
v 1 8 1.5
v 2 8 1.5
v -3 9 3.5
v 3 9 3.5
v -3 9 2.5
v 3 9 2.5
v -3 1 4.5
v 3 1 4.5
v -4 1 3.5
v -3 1 3.5
v 3 1 3.5
v 0 1 2.5
v 1 1 2.5
v 0 1 1.5
v 1 1 1.5
v 3 1 0.5
v 4 1 0.5
v -4 1 -1.5
v -3 1 -1.5
v 2 1 -1.5
v 3 1 -1.5
v -4 1 -2.5
v -3 1 -2.5
v 3 1 -2.5
v 4 1 -2.5
v -4 1 -3.5
v -3 1 -3.5
v 2 1 -3.5
v 3 1 -3.5
v -3 1 -4.5
v 2 1 -4.5
v -3 2 3.5
v 3 2 3.5
v -3 2 2.5
v 3 2 2.5
v 4 2 2.5
v 3 2 0.5
v 4 2 0.5
v -4 2 -1.5
v -3 2 -1.5
v -4 2 -2.5
v -3 2 -2.5
v 2 2 -2.5
v -3 2 -3.5
v 2 2 -3.5
v -1 6 2.5
v 1 6 2.5
v -1 6 1.5
v 1 6 1.5
v -4 6 0.5
v -3 6 0.5
v 3 6 0.5
v 4 6 0.5
v -4 6 -0.5
v -3 6 -0.5
v 3 6 -0.5
v 4 6 -0.5
v -2 7 2.5
v -1 7 2.5
v 1 7 2.5
v 2 7 2.5
v -2 7 1.5
v -1 7 1.5
v 1 7 1.5
v 2 7 1.5
v 3 9 3.5
v 4 9 3.5
v 3 9 2.5
v 4 9 2.5
v -4 10 3.5
v -3 10 3.5
v -3 10 2.5
v -2 10 2.5
v -4 10 1.5
v -2 10 1.5
v -4 10 -0.5
v -3 10 -0.5
v -4 10 -1.5
v -3 10 -1.5
v -3 11 3.5
v 3 11 3.5
v -3 11 2.5
v -2 11 2.5
v 3 11 2.5
v 4 11 2.5
v -2 11 1.5
v 4 11 1.5
v 3 11 -0.5
v 4 11 -0.5
v -3 11 -1.5
v -2 11 -1.5
v 3 11 -1.5
v 4 11 -1.5
v -3 11 -2.5
v -2 11 -2.5
v 2 11 -2.5
v -2 11 -3.5
v 2 11 -3.5
v -4 12 1.5
v -3 12 1.5
v 3 12 1.5
v 4 12 1.5
v -4 12 -0.5
v -3 12 -0.5
v 3 12 -0.5
v 4 12 -0.5
v -2 13 -1.5
v 3 13 -1.5
v -2 13 -2.5
v 3 13 -2.5
v -3 14 1.5
v 3 14 1.5
v -3 14 -1.5
v 3 14 -1.5

# faces
f 3/9/1 2/9/1 1/9/1
f 4/9/1 2/9/1 3/9/1
f 5/9/1 2/9/1 4/9/1
f 6/9/1 2/9/1 5/9/1
f 9/9/1 5/9/1 4/9/1
f 10/9/1 5/9/1 9/9/1
f 11/5/1 8/5/1 7/5/1
f 12/5/1 8/5/1 11/5/1
f 14/9/1 12/9/1 11/9/1
f 15/9/1 12/9/1 14/9/1
f 17/3/1 14/3/1 13/3/1
f 18/3/1 16/3/1 15/3/1
f 19/3/1 17/3/1 13/3/1
f 19/3/1 18/3/1 17/3/1
f 20/3/1 18/3/1 19/3/1
f 21/3/1 16/3/1 18/3/1
f 21/3/1 18/3/1 20/3/1
f 22/3/1 16/3/1 21/3/1
f 23/3/1 21/3/1 20/3/1
f 24/3/1 21/3/1 23/3/1
f 29/9/1 26/9/1 25/9/1
f 30/9/1 26/9/1 29/9/1
f 33/9/1 28/9/1 27/9/1
f 34/9/1 28/9/1 33/9/1
f 35/9/1 31/9/1 30/9/1
f 36/9/1 31/9/1 35/9/1
f 37/9/1 31/9/1 36/9/1
f 38/9/1 31/9/1 37/9/1
f 39/9/1 31/9/1 38/9/1
f 40/9/1 33/9/1 32/9/1
f 41/9/1 33/9/1 40/9/1
f 42/9/1 37/9/1 36/9/1
f 43/9/1 39/9/1 38/9/1
f 43/9/1 40/9/1 39/9/1
f 44/9/1 42/9/1 36/9/1
f 45/9/1 42/9/1 44/9/1
f 46/9/1 40/9/1 43/9/1
f 47/9/1 40/9/1 46/9/1
f 48/9/1 40/9/1 47/9/1
f 49/8/1 46/8/1 45/8/1
f 50/8/1 46/8/1 49/8/1
f 54/3/1 48/3/1 47/3/1
f 55/3/1 52/3/1 51/3/1
f 56/3/1 52/3/1 55/3/1
f 57/3/1 54/3/1 53/3/1
f 57/3/1 48/3/1 54/3/1
f 58/3/1 48/3/1 57/3/1
f 60/3/1 57/3/1 53/3/1
f 61/3/1 60/3/1 59/3/1
f 62/3/1 57/3/1 60/3/1
f 62/3/1 60/3/1 61/3/1
f 67/3/1 66/3/1 65/3/1
f 68/3/1 66/3/1 67/3/1
f 70/3/1 64/3/1 63/3/1
f 71/3/1 64/3/1 70/3/1
f 72/3/1 70/3/1 69/3/1
f 73/3/1 70/3/1 72/3/1
f 76/4/1 75/4/1 74/4/1
f 77/4/1 75/4/1 76/4/1
f 80/9/1 79/9/1 78/9/1
f 81/9/1 79/9/1 80/9/1
f 84/9/1 83/9/1 82/9/1
f 85/9/1 83/9/1 84/9/1
f 88/4/1 87/4/1 86/4/1
f 89/4/1 87/4/1 88/4/1
f 92/4/1 91/4/1 90/4/1
f 93/4/1 91/4/1 92/4/1
f 96/3/1 95/3/1 94/3/1
f 97/3/1 95/3/1 96/3/1
f 98/3/2 99/3/2 100/3/2
f 100/3/2 99/3/2 101/3/2
f 102/4/2 103/4/2 104/4/2
f 104/4/2 103/4/2 105/4/2
f 106/9/2 107/9/2 108/9/2
f 108/9/2 107/9/2 109/9/2
f 110/4/2 111/4/2 112/4/2
f 112/4/2 111/4/2 113/4/2
f 114/9/2 115/9/2 116/9/2
f 116/9/2 115/9/2 117/9/2
f 118/4/2 119/4/2 120/4/2
f 120/4/2 119/4/2 121/4/2
f 122/9/2 123/9/2 125/9/2
f 125/9/2 123/9/2 126/9/2
f 124/9/2 125/9/2 127/9/2
f 127/9/2 125/9/2 128/9/2
f 128/9/2 125/9/2 129/9/2
f 130/3/2 131/3/2 132/3/2
f 132/3/2 131/3/2 133/3/2
f 134/9/2 135/9/2 138/9/2
f 138/9/2 135/9/2 139/9/2
f 136/9/2 137/9/2 142/9/2
f 142/9/2 137/9/2 143/9/2
f 139/9/2 135/9/2 144/9/2
f 144/9/2 135/9/2 145/9/2
f 140/9/2 141/9/2 146/9/2
f 146/9/2 141/9/2 147/9/2
f 147/9/2 141/9/2 148/9/2
f 145/9/2 146/9/2 150/9/2
f 148/9/2 149/9/2 151/9/2
f 147/9/2 148/9/2 151/9/2
f 145/9/2 150/9/2 152/9/2
f 152/9/2 150/9/2 153/9/2
f 151/9/2 149/9/2 154/9/2
f 154/9/2 149/9/2 155/9/2
f 155/9/2 149/9/2 156/9/2
f 153/9/2 154/9/2 157/9/2
f 157/9/2 154/9/2 158/9/2
f 159/3/2 160/3/2 161/3/2
f 161/3/2 160/3/2 162/3/2
f 155/3/2 156/3/2 164/3/2
f 163/3/2 164/3/2 166/3/2
f 164/3/2 156/3/2 167/3/2
f 165/3/2 166/3/2 167/3/2
f 166/3/2 164/3/2 167/3/2
f 167/3/2 156/3/2 168/3/2
f 165/3/2 167/3/2 169/3/2
f 169/3/2 167/3/2 170/3/2
f 171/9/2 172/9/2 173/9/2
f 173/9/2 172/9/2 174/9/2
f 171/9/2 173/9/2 175/9/2
f 175/9/2 173/9/2 176/9/2
f 176/4/2 177/4/2 178/4/2
f 178/4/2 177/4/2 179/4/2
f 178/9/2 179/9/2 181/9/2
f 181/9/2 179/9/2 182/9/2
f 180/3/2 181/3/2 184/3/2
f 182/3/2 183/3/2 185/3/2
f 180/3/2 184/3/2 186/3/2
f 184/3/2 185/3/2 186/3/2
f 186/3/2 185/3/2 187/3/2
f 187/3/2 185/3/2 188/3/2
f 188/3/2 185/3/2 189/3/2
f 185/3/2 183/3/2 190/3/2
f 189/3/2 185/3/2 190/3/2
f 190/3/2 183/3/2 191/3/2
f 189/3/2 190/3/2 192/3/2
f 192/3/2 190/3/2 193/3/2
f 196/9/3 195/9/3 194/9/3
f 197/9/3 195/9/3 196/9/3
f 202/9/3 199/9/3 198/9/3
f 203/9/3 199/9/3 202/9/3
f 205/3/3 201/3/3 200/3/3
f 206/3/3 201/3/3 205/3/3
f 207/3/3 201/3/3 206/3/3
f 209/9/3 204/9/3 203/9/3
f 210/9/3 204/9/3 209/9/3
f 212/3/3 208/3/3 207/3/3
f 212/3/3 207/3/3 206/3/3
f 213/3/3 208/3/3 212/3/3
f 214/3/3 212/3/3 211/3/3
f 215/3/3 212/3/3 214/3/3
f 219/4/3 218/4/3 217/4/3
f 220/4/3 218/4/3 219/4/3
f 221/9/3 217/9/3 216/9/3
f 221/4/3 219/4/3 217/4/3
f 222/4/3 219/4/3 221/4/3
f 223/4/3 218/4/3 220/4/3
f 224/9/3 221/9/3 216/9/3
f 225/4/3 223/4/3 222/4/3
f 226/4/3 218/4/3 223/4/3
f 226/4/3 223/4/3 225/4/3
f 227/4/3 225/4/3 224/4/3
f 228/4/3 218/4/3 226/4/3
f 230/9/3 224/9/3 216/9/3
f 231/4/3 228/4/3 227/4/3
f 231/4/3 227/4/3 224/4/3
f 231/9/3 224/9/3 230/9/3
f 232/4/3 218/4/3 228/4/3
f 232/4/3 228/4/3 231/4/3
f 234/9/3 230/9/3 229/9/3
f 235/9/3 230/9/3 234/9/3
f 236/3/3 233/3/3 232/3/3
f 237/3/3 233/3/3 236/3/3
f 240/3/3 239/3/3 238/3/3
f 244/3/3 240/3/3 238/3/3
f 244/3/3 241/3/3 240/3/3
f 245/3/3 241/3/3 244/3/3
f 247/2/3 243/2/3 242/2/3
f 248/2/3 243/2/3 247/2/3
f 251/9/3 250/9/3 249/9/3
f 252/9/3 250/9/3 251/9/3
f 253/7/3 247/7/3 246/7/3
f 254/7/3 247/7/3 253/7/3
f 256/2/3 255/2/3 254/2/3
f 257/2/3 255/2/3 256/2/3
f 258/3/3 241/3/3 245/3/3
f 259/3/3 241/3/3 258/3/3
f 260/3/3 258/3/3 245/3/3
f 261/3/3 258/3/3 260/3/3
f 265/5/3 263/5/3 262/5/3
f 266/9/3 264/9/3 263/9/3
f 266/5/3 263/5/3 265/5/3
f 267/9/3 264/9/3 266/9/3
f 271/4/3 269/4/3 268/4/3
f 272/9/3 270/9/3 269/9/3
f 272/4/3 269/4/3 271/4/3
f 273/9/3 270/9/3 272/9/3
f 276/3/3 275/3/3 274/3/3
f 277/3/3 275/3/3 276/3/3
f 280/9/3 279/9/3 278/9/3
f 281/9/3 279/9/3 280/9/3
f 284/3/3 283/3/3 282/3/3
f 285/3/3 283/3/3 284/3/3
f 288/9/3 287/9/3 286/9/3
f 289/9/3 287/9/3 288/9/3
f 290/3/4 291/3/4 292/3/4
f 292/3/4 291/3/4 293/3/4
f 294/9/4 295/9/4 296/9/4
f 296/9/4 295/9/4 297/9/4
f 298/3/4 299/3/4 300/3/4
f 300/3/4 299/3/4 301/3/4
f 302/9/4 303/9/4 304/9/4
f 304/9/4 303/9/4 305/9/4
f 306/9/4 307/9/4 310/9/4
f 310/9/4 307/9/4 311/9/4
f 308/3/4 309/3/4 312/3/4
f 312/3/4 309/3/4 313/3/4
f 314/5/4 315/5/4 319/5/4
f 315/9/4 316/9/4 320/9/4
f 319/5/4 315/5/4 320/5/4
f 320/9/4 316/9/4 321/9/4
f 317/3/4 318/3/4 322/3/4
f 322/3/4 318/3/4 323/3/4
f 324/4/4 325/4/4 329/4/4
f 325/9/4 326/9/4 330/9/4
f 329/4/4 325/4/4 330/4/4
f 330/9/4 326/9/4 331/9/4
f 327/3/4 328/3/4 332/3/4
f 332/3/4 328/3/4 333/3/4
f 334/3/4 335/3/4 336/3/4
f 336/3/4 335/3/4 337/3/4
f 338/3/4 339/3/4 340/3/4
f 340/3/4 339/3/4 341/3/4
f 342/9/4 343/9/4 344/9/4
f 344/9/4 343/9/4 345/9/4
f 341/3/4 339/3/4 348/3/4
f 348/3/4 339/3/4 349/3/4
f 346/3/4 347/3/4 350/3/4
f 350/3/4 347/3/4 351/3/4
f 352/9/4 353/9/4 354/9/4
f 354/9/4 353/9/4 355/9/4
f 356/3/4 357/3/4 358/3/4
f 355/9/4 356/9/4 358/9/4
f 358/3/4 357/3/4 359/3/4
f 355/9/4 358/9/4 361/9/4
f 361/9/4 358/9/4 362/9/4
f 359/3/4 360/3/4 363/3/4
f 361/9/4 362/9/4 366/9/4
f 362/3/4 363/3/4 367/3/4
f 366/9/4 362/9/4 367/9/4
f 363/3/4 360/3/4 368/3/4
f 367/3/4 363/3/4 368/3/4
f 364/9/4 365/9/4 369/9/4
f 369/9/4 365/9/4 370/9/4
f 371/9/4 372/9/4 373/9/4
f 373/9/4 372/9/4 374/9/4
f 374/9/4 375/9/4 379/9/4
f 379/9/4 375/9/4 380/9/4
f 376/3/4 377/3/4 381/3/4
f 381/3/4 377/3/4 382/3/4
f 378/9/4 379/9/4 383/9/4
f 383/9/4 379/9/4 384/9/4
f 385/9/4 386/9/4 387/9/4
f 387/9/4 386/9/4 388/9/4
f 392/9/5 390/9/5 389/9/5
f 393/9/5 390/9/5 392/9/5
f 393/9/5 392/9/5 391/9/5
f 395/9/5 393/9/5 391/9/5
f 395/9/5 394/9/5 393/9/5
f 396/9/5 394/9/5 395/9/5
f 397/9/5 395/9/5 391/9/5
f 398/9/5 394/9/5 396/9/5
f 399/9/5 394/9/5 398/9/5
f 399/9/5 398/9/5 397/9/5
f 400/9/5 394/9/5 399/9/5
f 401/9/5 397/9/5 391/9/5
f 401/9/5 399/9/5 397/9/5
f 402/9/5 399/9/5 401/9/5
f 403/9/5 399/9/5 402/9/5
f 404/9/5 399/9/5 403/9/5
f 405/9/5 403/9/5 402/9/5
f 406/9/5 403/9/5 405/9/5
f 409/9/5 408/9/5 407/9/5
f 410/9/5 408/9/5 409/9/5
f 413/9/5 412/9/5 411/9/5
f 414/9/5 412/9/5 413/9/5
f 419/5/5 416/5/5 415/5/5
f 420/5/5 416/5/5 419/5/5
f 421/4/5 418/4/5 417/4/5
f 422/4/5 418/4/5 421/4/5
f 425/9/5 424/9/5 423/9/5
f 426/9/5 424/9/5 425/9/5
f 431/3/5 428/3/5 427/3/5
f 432/3/5 430/3/5 429/3/5
f 433/3/5 431/3/5 427/3/5
f 434/3/5 431/3/5 433/3/5
f 435/3/5 430/3/5 432/3/5
f 436/3/5 430/3/5 435/3/5
f 441/3/5 438/3/5 437/3/5
f 442/3/5 438/3/5 441/3/5
f 443/3/5 440/3/5 439/3/5
f 444/3/5 440/3/5 443/3/5
f 447/3/5 446/3/5 445/3/5
f 448/3/5 446/3/5 447/3/5
f 451/4/5 450/4/5 449/4/5
f 452/4/5 450/4/5 451/4/5
f 457/3/5 454/3/5 453/3/5
f 458/3/5 454/3/5 457/3/5
f 459/3/5 456/3/5 455/3/5
f 460/3/5 456/3/5 459/3/5
f 465/4/5 462/4/5 461/4/5
f 466/4/5 462/4/5 465/4/5
f 467/4/5 464/4/5 463/4/5
f 468/4/5 464/4/5 467/4/5
f 471/3/5 470/3/5 469/3/5
f 472/3/5 470/3/5 471/3/5
f 473/9/6 474/9/6 476/9/6
f 476/9/6 474/9/6 477/9/6
f 478/9/6 479/9/6 480/9/6
f 480/9/6 479/9/6 481/9/6
f 475/9/6 476/9/6 484/9/6
f 484/9/6 476/9/6 485/9/6
f 482/9/6 483/9/6 487/9/6
f 486/9/6 487/9/6 490/9/6
f 487/9/6 483/9/6 490/9/6
f 490/9/6 483/9/6 491/9/6
f 488/9/6 489/9/6 492/9/6
f 492/9/6 489/9/6 493/9/6
f 486/9/6 490/9/6 494/9/6
f 494/9/6 490/9/6 495/9/6
f 493/9/6 494/9/6 496/9/6
f 496/9/6 494/9/6 497/9/6
f 498/9/6 499/9/6 500/9/6
f 500/9/6 499/9/6 501/9/6
f 501/9/6 502/9/6 503/9/6
f 503/9/6 502/9/6 504/9/6
f 505/9/6 506/9/6 507/9/6
f 507/9/6 506/9/6 508/9/6
f 508/9/6 509/9/6 510/9/6
f 510/9/6 509/9/6 511/9/6
f 512/9/6 513/9/6 514/9/6
f 514/9/6 513/9/6 515/9/6
f 516/9/6 517/9/6 520/9/6
f 520/9/6 517/9/6 521/9/6
f 518/9/6 519/9/6 522/9/6
f 522/9/6 519/9/6 523/9/6
f 524/4/6 525/4/6 528/4/6
f 528/4/6 525/4/6 529/4/6
f 526/4/6 527/4/6 530/4/6
f 530/4/6 527/4/6 531/4/6
f 532/3/6 533/3/6 534/3/6
f 534/3/6 533/3/6 535/3/6
f 536/3/6 537/3/6 538/3/6
f 536/3/6 538/3/6 540/3/6
f 538/3/6 539/3/6 540/3/6
f 540/3/6 539/3/6 541/3/6
f 542/3/6 543/3/6 544/3/6
f 544/3/6 543/3/6 545/3/6
f 546/3/6 547/3/6 548/3/6
f 548/3/6 547/3/6 549/3/6
f 549/3/6 547/3/6 550/3/6
f 550/3/6 551/3/6 552/3/6
f 549/3/6 550/3/6 552/3/6
f 552/3/6 551/3/6 553/3/6
f 554/3/6 555/3/6 558/3/6
f 558/3/6 555/3/6 559/3/6
f 556/3/6 557/3/6 560/3/6
f 560/3/6 557/3/6 561/3/6
f 561/3/6 562/3/6 563/3/6
f 563/3/6 562/3/6 564/3/6
f 565/3/6 566/3/6 569/3/6
f 569/3/6 566/3/6 570/3/6
f 567/3/6 568/3/6 571/3/6
f 571/3/6 568/3/6 572/3/6
f 573/3/6 574/3/6 575/3/6
f 575/3/6 574/3/6 576/3/6
f 577/3/6 578/3/6 579/3/6
f 579/3/6 578/3/6 580/3/6
